<svg xmlns="http://www.w3.org/2000/svg" viewBox="0 0 167 158"><defs><style>.cls-1{fill:#d78b2d;}</style></defs><title>OTC_usuarios</title><g id="Capa_1" data-name="Capa 1"><path class="cls-1" d="M83.94,30.82,98.61,60.54l1.7,3.45,3.82.55,32.8,4.77L113.2,92.45l-2.76,2.69.65,3.79,5.6,32.68L87.35,116.18l-3.41-1.79-3.41,1.79L51.19,131.6,56.8,98.93l.65-3.79-2.76-2.69L31,69.31l32.81-4.77L67.57,64l1.71-3.45L83.94,30.82m0-16.56-21.23,43-47.5,6.9,34.37,33.5L41.46,145l42.48-22.34L126.42,145l-8.11-47.31,34.37-33.5-47.5-6.9-21.24-43Z"/></g></svg>